<svg width="170" height="35" viewBox="0 0 170 35" fill="none" xmlns="http://www.w3.org/2000/svg">
<path d="M16.978 9.878L10.14 28H7.41L0.572 9.878H3.094L8.788 25.504L14.482 9.878H16.978ZM20.7943 11.438C20.3436 11.438 19.9623 11.282 19.6503 10.97C19.3383 10.658 19.1823 10.2767 19.1823 9.826C19.1823 9.37533 19.3383 8.994 19.6503 8.682C19.9623 8.37 20.3436 8.214 20.7943 8.214C21.2276 8.214 21.5916 8.37 21.8863 8.682C22.1983 8.994 22.3543 9.37533 22.3543 9.826C22.3543 10.2767 22.1983 10.658 21.8863 10.97C21.5916 11.282 21.2276 11.438 20.7943 11.438ZM21.9383 13.752V28H19.5723V13.752H21.9383ZM32.9128 13.492C34.6461 13.492 36.0501 14.0207 37.1248 15.078C38.1994 16.118 38.7368 17.626 38.7368 19.602V28H36.3968V19.94C36.3968 18.5187 36.0414 17.4353 35.3308 16.69C34.6201 15.9273 33.6494 15.546 32.4188 15.546C31.1708 15.546 30.1741 15.936 29.4288 16.716C28.7008 17.496 28.3368 18.6313 28.3368 20.122V28H25.9708V13.752H28.3368V15.78C28.8048 15.052 29.4374 14.4887 30.2348 14.09C31.0494 13.6913 31.9421 13.492 32.9128 13.492ZM41.7176 20.824C41.7176 19.368 42.0123 18.094 42.6016 17.002C43.1909 15.8927 43.9969 15.0347 45.0196 14.428C46.0596 13.8213 47.2123 13.518 48.4776 13.518C49.7256 13.518 50.8089 13.7867 51.7276 14.324C52.6463 14.8613 53.3309 15.5373 53.7816 16.352V13.752H56.1736V28H53.7816V25.348C53.3136 26.18 52.6116 26.8733 51.6756 27.428C50.7569 27.9653 49.6823 28.234 48.4516 28.234C47.1863 28.234 46.0423 27.922 45.0196 27.298C43.9969 26.674 43.1909 25.7987 42.6016 24.672C42.0123 23.5453 41.7176 22.2627 41.7176 20.824ZM53.7816 20.85C53.7816 19.7753 53.5649 18.8393 53.1316 18.042C52.6983 17.2447 52.1089 16.638 51.3636 16.222C50.6356 15.7887 49.8296 15.572 48.9456 15.572C48.0616 15.572 47.2556 15.78 46.5276 16.196C45.7996 16.612 45.2189 17.2187 44.7856 18.016C44.3523 18.8133 44.1356 19.7493 44.1356 20.824C44.1356 21.916 44.3523 22.8693 44.7856 23.684C45.2189 24.4813 45.7996 25.0967 46.5276 25.53C47.2556 25.946 48.0616 26.154 48.9456 26.154C49.8296 26.154 50.6356 25.946 51.3636 25.53C52.1089 25.0967 52.6983 24.4813 53.1316 23.684C53.5649 22.8693 53.7816 21.9247 53.7816 20.85ZM72.4439 13.752L63.8639 34.708H61.4199L64.2279 27.844L58.4819 13.752H61.1079L65.5799 25.296L69.9999 13.752H72.4439ZM73.9383 20.824C73.9383 19.368 74.233 18.094 74.8223 17.002C75.4116 15.8927 76.2176 15.0347 77.2403 14.428C78.2803 13.8213 79.433 13.518 80.6983 13.518C81.9463 13.518 83.0296 13.7867 83.9483 14.324C84.867 14.8613 85.5516 15.5373 86.0023 16.352V13.752H88.3943V28H86.0023V25.348C85.5343 26.18 84.8323 26.8733 83.8963 27.428C82.9776 27.9653 81.903 28.234 80.6723 28.234C79.407 28.234 78.263 27.922 77.2403 27.298C76.2176 26.674 75.4116 25.7987 74.8223 24.672C74.233 23.5453 73.9383 22.2627 73.9383 20.824ZM86.0023 20.85C86.0023 19.7753 85.7856 18.8393 85.3523 18.042C84.919 17.2447 84.3296 16.638 83.5843 16.222C82.8563 15.7887 82.0503 15.572 81.1663 15.572C80.2823 15.572 79.4763 15.78 78.7483 16.196C78.0203 16.612 77.4396 17.2187 77.0063 18.016C76.573 18.8133 76.3563 19.7493 76.3563 20.824C76.3563 21.916 76.573 22.8693 77.0063 23.684C77.4396 24.4813 78.0203 25.0967 78.7483 25.53C79.4763 25.946 80.2823 26.154 81.1663 26.154C82.0503 26.154 82.8563 25.946 83.5843 25.53C84.3296 25.0967 84.919 24.4813 85.3523 23.684C85.7856 22.8693 86.0023 21.9247 86.0023 20.85ZM100.349 28L94.7586 21.708V28H92.3926V8.76H94.7586V20.07L100.245 13.752H103.547L96.8386 20.85L103.573 28H100.349ZM126.433 15.13C125.93 14.0727 125.202 13.258 124.249 12.686C123.296 12.0967 122.186 11.802 120.921 11.802C119.656 11.802 118.512 12.0967 117.489 12.686C116.484 13.258 115.686 14.09 115.097 15.182C114.525 16.2567 114.239 17.5047 114.239 18.926C114.239 20.3473 114.525 21.5953 115.097 22.67C115.686 23.7447 116.484 24.5767 117.489 25.166C118.512 25.738 119.656 26.024 120.921 26.024C122.689 26.024 124.145 25.4953 125.289 24.438C126.433 23.3807 127.1 21.9507 127.291 20.148H120.063V18.224H129.813V20.044C129.674 21.5347 129.206 22.904 128.409 24.152C127.612 25.3827 126.563 26.362 125.263 27.09C123.963 27.8007 122.516 28.156 120.921 28.156C119.24 28.156 117.706 27.766 116.319 26.986C114.932 26.1887 113.832 25.088 113.017 23.684C112.22 22.28 111.821 20.694 111.821 18.926C111.821 17.158 112.22 15.572 113.017 14.168C113.832 12.7467 114.932 11.646 116.319 10.866C117.706 10.0687 119.24 9.67 120.921 9.67C122.845 9.67 124.544 10.1467 126.017 11.1C127.508 12.0533 128.591 13.3967 129.267 15.13H126.433Z" fill="#F1F1F3"/>
<path d="M135.388 9H146.259V28H135.388V9Z" fill="#F14A00"/>
</svg>
